<svg id="Layer_2" data-name="Layer 2" xmlns="http://www.w3.org/2000/svg" viewBox="0 0 792.86 67.94"><defs><style>.cls-1{fill:none;stroke:#fdb914;stroke-miterlimit:10;}.cls-2{font-size:26px;font-family:BCSans-Bold, BC Sans;font-weight:700;}.cls-2,.cls-6,.cls-9{fill:#fff;}.cls-3{letter-spacing:-0.07em;}.cls-4{letter-spacing:-0.02em;}.cls-5{letter-spacing:-0.02em;}.cls-6{font-size:9px;font-family:BCSans-Regular, BC Sans;}.cls-7{letter-spacing:-0.02em;}.cls-8{letter-spacing:-0.01em;}.cls-10{fill:#e3a82b;}.cls-11{fill:#65799e;}</style></defs><title>BC-TFW-Logo and title</title><line class="cls-1" x1="169.06" y1="14.42" x2="169.06" y2="59.97"/><text class="cls-2" transform="translate(183.54 53.31)"><tspan class="cls-3">T</tspan><tspan x="13.23" y="0">empo</tspan><tspan class="cls-4" x="86.68" y="0">r</tspan><tspan x="97.97" y="0">ary Fo</tspan><tspan class="cls-4" x="177.4" y="0">r</tspan><tspan x="188.68" y="0">eign </tspan><tspan class="cls-5" x="252.28" y="0">W</tspan><tspan x="276.9" y="0">orker Authorization Form</tspan></text><text class="cls-6" transform="translate(183.54 21.3)"><tspan class="cls-7">C</tspan><tspan class="cls-8" x="5.51" y="0">O</tspan><tspan x="12.45" y="0">VID-19 RESPONSE</tspan></text><g id="BC-ID"><path class="cls-9" d="M15.5,47.73c9.33,0,22.23,5.25,31.59,5.25,6.68,0,13.2-1.79,16.91-4.41A28.38,28.38,0,1,0,7.63,43.83,29,29,0,0,0,8,48.52a46.08,46.08,0,0,1,7.48-.79"/><rect class="cls-10" x="79.3" y="53.29" width="65.65" height="0.8"/><path class="cls-9" d="M82.63,31.42a3.24,3.24,0,0,0,.42,2,2.08,2.08,0,0,0,1.58.5c1.77,0,3.13-.72,3.13-2.52,0-1.42-.8-3.08-4-3.08-1.08,0-1.16.11-1.16.47Zm0-4.18c0,.5,0,.54,1,.5,2-.07,3.13-.61,3.13-2.3S85.34,23,83.83,23a2.82,2.82,0,0,0-.92.1c-.2.06-.28.15-.28.47ZM81,24.84c0-1.33-.1-1.68-1-1.75L79.37,23c-.1-.08-.07-.44,0-.45,1.08-.09,2.44-.14,4.3-.14A8.39,8.39,0,0,1,87,23a2.36,2.36,0,0,1,1.52,2.25c0,1.3-.84,2-2,2.47,0,.18.16.23.38.27a3.09,3.09,0,0,1,2.68,3c0,2.09-1.72,3.49-5.31,3.49-.58,0-1.56,0-2.4,0s-1.56,0-2.3,0a.32.32,0,0,1,0-.45l.36-.05c1.06-.17,1.1-.36,1.1-2.25Z"/><path class="cls-9" d="M103.48,26.62c0-1.63,0-1.9-1-2l-.43,0a.29.29,0,0,1,0-.39c.86,0,1.44.05,2.15.05s1.27,0,2.12-.05c.1.05.14.32,0,.39l-.42,0c-1,.07-1,.34-1,2v5.47c0,1.63,0,1.85,1,2l.42,0c.11.06.07.34,0,.39-.85,0-1.43,0-2.12,0s-1.29,0-2.15,0a.29.29,0,0,1,0-.39l.43,0c1-.11,1-.33,1-2Z"/><path class="cls-9" d="M113,32.12c0,1.62,0,1.85,1,1.93l.51,0c.1.06.06.34,0,.39-.91,0-1.46,0-2.1,0s-1.2,0-2.22,0a.26.26,0,0,1,0-.39l.58,0c.91-.08,1-.31,1-1.93V25.25c0-.48,0-.5-.48-.5h-.88a3.42,3.42,0,0,0-2,.39,2.94,2.94,0,0,0-.72,1.06.32.32,0,0,1-.42-.11,14.76,14.76,0,0,0,.61-2.29s.26-.05.31,0c.09.49.62.48,1.36.48h6.47c.87,0,1,0,1.25-.43.08,0,.26,0,.29,0a8.73,8.73,0,0,0-.24,2.34c-.06.12-.34.12-.42,0a1.86,1.86,0,0,0-.4-1.12,3.26,3.26,0,0,0-1.85-.39h-1.14c-.48,0-.46,0-.46.53Z"/><path class="cls-9" d="M119.81,26.62c0-1.63,0-1.9-1-2l-.42,0c-.11-.07-.07-.34,0-.39.86,0,1.44.05,2.15.05s1.27,0,2.12-.05c.1.05.14.32,0,.39l-.42,0c-1,.07-1,.34-1,2v5.47c0,1.63,0,1.85,1,2l.42,0c.11.06.07.34,0,.39-.85,0-1.43,0-2.12,0s-1.29,0-2.15,0a.28.28,0,0,1,0-.39l.42,0c1-.11,1-.33,1-2Z"/><path class="cls-9" d="M127.46,34.63a6.41,6.41,0,0,1-2.83-.57,5.93,5.93,0,0,1-.49-2.15c.09-.11.36-.14.43-.05a3.14,3.14,0,0,0,3.12,2.3c1.53,0,2.27-.85,2.27-1.77,0-.68-.16-1.43-1.49-2.16l-1.72-.95a3.28,3.28,0,0,1-2-2.65c0-1.46,1.34-2.64,3.7-2.64a8.07,8.07,0,0,1,1.69.2,2.94,2.94,0,0,0,.63.09,5.61,5.61,0,0,1,.33,1.88.39.39,0,0,1-.45,0,2.29,2.29,0,0,0-2.47-1.73c-1.78,0-2.16,1-2.16,1.7,0,.9.87,1.54,1.54,1.9l1.45.76c1.15.6,2.27,1.5,2.27,3,0,1.69-1.5,2.84-3.86,2.84"/><path class="cls-9" d="M136.59,29.46c-.79,0-.82,0-.82.49v2.17c0,1.62.08,1.83,1,1.93l.48,0c.09.06.06.34,0,.39-.89,0-1.45,0-2.1,0s-1.27,0-1.92,0a.29.29,0,0,1,0-.39l.28,0c.93-.16,1-.31,1-1.93V26.58c0-1.61-.12-1.87-1-1.93l-.43,0c-.1-.07-.06-.34,0-.39.82,0,1.38.05,2.09.05s1.21,0,1.92-.05a.29.29,0,0,1,0,.39l-.31,0c-1,.09-1,.32-1,1.93v1.77c0,.48,0,.5.82.5h4.74c.79,0,.82,0,.82-.5V26.58c0-1.61,0-1.84-1-1.93l-.32,0a.29.29,0,0,1,0-.39c.77,0,1.33.05,2,.05s1.2,0,1.95-.05a.29.29,0,0,1,0,.39l-.34,0c-1,.09-1,.32-1,1.93v5.54c0,1.62,0,1.82,1,1.93l.39,0c.1.06.07.34,0,.39-.8,0-1.36,0-2,0s-1.28,0-2,0a.29.29,0,0,1,0-.39l.32,0c1-.16,1-.31,1-1.93V30c0-.46,0-.49-.82-.49Z"/><path class="cls-9" d="M71.51,37.86a8.06,8.06,0,0,1,5-1.58,14.6,14.6,0,0,1,3.3.44,1.29,1.29,0,0,0,.52.08c0,.42.11,1.59.26,2.73a.39.39,0,0,1-.51,0c-.27-1.26-1.11-2.71-3.82-2.71S71,38.65,71,42.5s2.48,6,5.53,6a4,4,0,0,0,3.9-2.65.38.38,0,0,1,.48.07,7,7,0,0,1-.89,2.55,3.46,3.46,0,0,0-.65.18,10.93,10.93,0,0,1-3,.43,8.12,8.12,0,0,1-4.64-1.25,6,6,0,0,1-2.64-5.1,6.16,6.16,0,0,1,2.34-4.92"/><path class="cls-9" d="M91.45,44.19c0-2.54-1.18-5.28-4.27-5.28-1.68,0-3.86,1.09-3.86,4.46,0,2.28,1.17,5.23,4.35,5.23,1.94,0,3.78-1.38,3.78-4.41m-9.74-.33a5.46,5.46,0,0,1,5.75-5.43,5.19,5.19,0,0,1,5.6,5.28,5.39,5.39,0,0,1-5.6,5.37c-3.59,0-5.75-2.45-5.75-5.22"/><path class="cls-9" d="M111.28,42.54a10.37,10.37,0,0,0-.31-3.18c-.11-.19-.4-.3-.81-.33l-.41,0a.27.27,0,0,1,0-.37c.62,0,1.23,0,1.86,0s1.13,0,1.71,0a.26.26,0,0,1,0,.37L113,39a1,1,0,0,0-.82.37,12.93,12.93,0,0,0-.23,3.14v1.74A5.14,5.14,0,0,1,110.81,48a4.41,4.41,0,0,1-3.11,1.13,4.8,4.8,0,0,1-3-.85c-.87-.67-1.27-1.8-1.27-3.63V41c0-1.6,0-1.86-1-1.94L102,39c-.1-.06-.07-.32,0-.37.82,0,1.37,0,2,0s1.21,0,2,0c.1,0,.13.31,0,.37l-.39,0c-.94.08-1,.34-1,1.94v3.32c0,2.48.82,4.11,3.31,4.11s3.26-1.75,3.26-4.09Z"/><path class="cls-9" d="M131.71,46.29a2.69,2.69,0,0,0,.38,1.69,1.92,1.92,0,0,0,1.43.44c1.6,0,2.82-.62,2.82-2.18,0-1.22-.72-2.65-3.58-2.65-1,0-1,.09-1,.4Zm0-3.6c0,.43,0,.46.94.43,1.84-.06,2.83-.53,2.83-2s-1.32-2.1-2.69-2.1a2.52,2.52,0,0,0-.82.1c-.18,0-.26.12-.26.4Zm-1.47-2.07c0-1.15-.08-1.45-.89-1.51l-.57,0c-.07-.06-.11-.37,0-.38,1-.08,2.2-.13,3.88-.13a7.84,7.84,0,0,1,3,.44,2,2,0,0,1,1.37,1.94c0,1.12-.76,1.69-1.84,2.13,0,.15.14.2.34.23a2.73,2.73,0,0,1,2.42,2.6c0,1.8-1.55,3-4.8,3-.52,0-1.4,0-2.16,0s-1.41,0-2.07,0a.27.27,0,0,1,0-.39l.32,0c1-.14,1-.32,1-1.95Z"/><path class="cls-9" d="M94.64,29c-.31,0-.93.11-.93-.3V25.79c0-1.15,0-1.32,1.43-1.32,1.62,0,2.62.83,2.62,2.34a1.93,1.93,0,0,1-.84,1.68,3.75,3.75,0,0,1-2.28.55m6.23,5.05-.43,0a1.75,1.75,0,0,1-.24,0c-.62-.11-.87-.66-1.17-1.18l-1.47-2.57c-.26-.43-.53-1-1.11-1.09,1.51-.18,2.88-1.05,2.88-2.55,0-1.74-1.72-2.51-3.45-2.51-1,0-2,0-3,0l-1.86,0c-.33,0-.33.07-.33.25s.11.19.46.21c1.23.07,1.18.3,1.18,1.35v6.75c0,1,.08,1.25-.93,1.34l-.24,0-.43.05c-.1.09-.07.34,0,.38l.64,0c.56,0,1.12-.06,1.68-.06s1.1,0,1.66.06h0l.63,0a.28.28,0,0,0,0-.38L94.93,34l-.24,0c-1-.07-1-.36-1-1.34V30.14c0-.15,0-.55.09-.66s.26-.09.4-.09c1.39,0,1.37.14,2,1.29L98,33.89c.15.25.26.56.62.56h1.55l.63,0a.29.29,0,0,0,0-.39"/><path class="cls-9" d="M95,41c0-1.61,0-1.86-1.1-1.93l-.42,0c-.11-.06-.07-.33,0-.38,1,0,1.52,0,2.2,0s1.23,0,2.08,0c.1,0,.14.32,0,.38l-.4,0c-1,.07-1,.32-1,1.93v5.36c0,1,0,1.37.35,1.66s.51.35,1.84.35a4.8,4.8,0,0,0,2.07-.2,3.29,3.29,0,0,0,1.12-1.52c.1-.08.42,0,.42.09a11.11,11.11,0,0,1-.71,2.15c-.86,0-2.47,0-4.21,0H95.69c-.71,0-1.25,0-2.2,0a.27.27,0,0,1,0-.38l.5-.05c1-.09,1-.3,1-1.92Z"/><path class="cls-9" d="M140.31,41.05c0-1.63,0-1.89-1-2l-.41,0c-.1-.06-.07-.33,0-.38.83,0,1.4,0,2.09,0s1.23,0,2.06,0c.1,0,.14.32,0,.38l-.42,0c-1,.07-1,.33-1,2v5.48c0,1.63,0,1.85,1,1.95l.42.05c.1.06.06.34,0,.38-.83,0-1.39,0-2.06,0s-1.26,0-2.09,0c-.1,0-.13-.29,0-.38l.41-.05c1-.1,1-.32,1-1.95Z"/><path class="cls-9" d="M127,48.48l-.24,0a.63.63,0,0,1-.46-.18c-.22-.23-.2-.88-.2-1.14V40.4c0-.3-.07-.93.15-1.16a.78.78,0,0,1,.53-.15h0l.23,0,.43,0c.1-.06.06-.34,0-.38H125c-.19,0-.37,0-.48.21l-3.7,7.7-3.27-7.44c-.1-.26-.12-.47-.46-.47h-2.53c-.11,0-.14.32,0,.38l.43,0,.25,0c.7,0,.75.2.68.95l-.55,7.23c0,.72-.09,1.11-.85,1.18l-.25,0-.43,0a.28.28,0,0,0,0,.39l.62,0c.39,0,.78,0,1.17,0s.85,0,1.27,0h0l.64,0c.1,0,.13-.29,0-.38l-.43-.05-.23,0c-1.1-.07-1.08-.85-1-1.8l.52-6.72h.13l3.54,8.28c0,.11.08.31.26.31s.22-.18.27-.3l4-8.49h.12v7.4c0,.29,0,.9-.26,1.12a2.22,2.22,0,0,1-.68.19.85.85,0,0,1-.23,0l-.43.05c-.1.09-.07.34,0,.38l.63,0c.58,0,1.16,0,1.75,0,.43,0,1.25,0,1.25,0l.65,0c.11,0,.14-.29,0-.38Z"/><path class="cls-9" d="M150.29,44.71h-2c-.07,0-.62.07-.62-.09a.73.73,0,0,1,.05-.2l1.2-3c0-.08.15-.49.29-.49s.25.43.28.49l1.18,2.78s.12.29.12.35-.4.13-.5.13m4.48,3.81-.05,0-.24,0c-.66-.15-.92-1-1.17-1.53l-3.42-8.1c0-.09-.1-.3-.24-.3s-.23.22-.28.35L146.09,47a5,5,0,0,1-.64,1.27.93.93,0,0,1-.62.23l-.27,0-.41,0c-.1.09-.07.34,0,.38l.63,0c.45,0,.89-.06,1.34-.06s.76,0,1.13.06l.63,0a.28.28,0,0,0,0-.39l-.43,0-.23,0c-.39-.05-.88-.12-.88-.55a2.72,2.72,0,0,1,.23-.89l.51-1.21c.26-.58.15-.64.83-.64h2.31c.81,0,.69,0,1,.82l.54,1.22a2.63,2.63,0,0,1,.24.8c0,.4-.45.43-.86.46l-.26,0-.41,0a.29.29,0,0,0,0,.39l.63,0c.48,0,1-.05,1.43-.05s1.19,0,1.78.06h0c.2,0,0,0,.26,0a.28.28,0,0,0,0-.39"/><path class="cls-10" d="M54.37,37.26l1.12.47L58,36Z"/><path class="cls-10" d="M12.55,35.32l-3-1,.15-.36L13.07,35h0l.44-.24.17-.11-3.62-1.54.15-.38L18.32,36l.26-.11-8-3.91.17-.37,8.5,4,.12-.06-8.24-4.68.17-.35L23.19,37c.09-.18.3-.51.4-.69a105,105,0,0,0-8.89-7.44,107.55,107.55,0,0,0,10,5.8c.19-.23.34-.42.53-.63L15.11,25.08l.27-.28,8.2,7L16,24.18l.28-.29,8.52,8.23-7.93-8.8.3-.27L24.5,30.9l-6.7-8.43.29-.27,8.58,10.44c.22-.19.41-.33.64-.51A107.62,107.62,0,0,0,21.88,22,107.48,107.48,0,0,0,29,31c.25-.14.5-.28.76-.4l0,0-6-12,.36-.16L29,28l-4.19-9.89.37-.17L30,28.77,26,17.63l.38-.14,3.86,10L27.14,17.19l.37-.13,4,12.8v0h0l.81-.24a105.16,105.16,0,0,0-1.21-11.41,105.29,105.29,0,0,0,3.14,11l.85-.08v0h0l0,0L34,15.77h.39l1,10.71-.18-10.74h.41l.41,11.84.41-11.84h.41l-.18,10.74,1-10.71h.39L37.1,29.14l0,0h0a7.53,7.53,0,0,1,.83.08,104.77,104.77,0,0,0,3.14-11,107.82,107.82,0,0,0-1.21,11.38l.82.25,4-12.77.37.14L42,27.56l3.86-10,.38.14-4,11.13L47,18l.38.16L43.18,28l5-9.54.35.16-6,12h0c.25.12.49.25.73.39a107.16,107.16,0,0,0,7.05-9,106.17,106.17,0,0,0-5.4,10.12l.68.54,8.47-10.32.29.26L47.66,31,55,23.13l.31.28-7.94,8.8L55.88,24l.29.3-7.59,7.6,8.19-7,.27.28L47,34h0a7.34,7.34,0,0,1,.51.6,107.87,107.87,0,0,0,10-5.76,105.25,105.25,0,0,0-8.83,7.38c.13.21.33.56.44.77l11.73-6.39L61,31l-9.36,5.31,9.73-4.53.18.37-9.07,4.42.18.06,9.23-3.73.15.38-8.58,3.65.16.06,5.72-1.9.86-.61.29.22L62.37,34l.14.36L60.89,35l2.35,1.79.75.42a28.75,28.75,0,0,0-56.06.67L8,37.8l.35-.15.21-.1Z"/><path class="cls-11" d="M7.76,49.12a47.69,47.69,0,0,1,7.78-.84c9.33,0,22.23,5.25,31.59,5.25,6.87,0,13.57-1.88,17.22-4.63a29.51,29.51,0,0,0,.43-5A28.62,28.62,0,0,0,64,37.18L60.09,35l-4.58,3.21L52.43,37c-1,.53-7.48,4.83-7.48,4.83l-2.47-1.79-2.64-.52L36.3,37l-4,2.79s-4.52,2.62-4.68,2.62-5.45-4.2-5.45-4.2L19.68,35.6c-.42.26-2.08,1-2.08,1l-.08,0-1.61-.5-1.95-1L8,37.8l-.1.05a29.06,29.06,0,0,0-.17,11.27"/></g></svg>