<svg viewBox="0 0 296.68 62.89" xmlns="http://www.w3.org/2000/svg" xmlns:xlink="http://www.w3.org/1999/xlink"><mask id="a" height="27.27" maskUnits="userSpaceOnUse" width="56.53" x="9.44" y="12.73"><path d="m66 34.91a29 29 0 0 0 -56.53.64l6.12-3.46 3.37 2.34s2-.88 2.39-1.14l2.43 2.55s5.27 4.16 5.42 4.16 4.67-2.6 4.67-2.6l4.05-2.76 3.53 2.55 2.64.52 2.7 1.83s6.54-4.33 7.58-4.85a26.05 26.05 0 0 0 3.11 1c.26 0 4.72-3.48 4.72-3.48z" fill="#fff" fill-rule="evenodd"/></mask><mask id="b" height="14.48" maskUnits="userSpaceOnUse" width="3.68" x="36.2" y="12.73"><path d="m37.94 27.17h.88l1.06-14.39c-.73-.05-1.48-.08-2.23-.08-.48 0-1 0-1.45 0l.71 14.44h1" fill="#fff" fill-rule="evenodd"/></mask><mask id="c" height="15.83" maskUnits="userSpaceOnUse" width="7.48" x="26.09" y="14.09"><path d="m33.57 27.94-4.25-13.85a26.68 26.68 0 0 0 -3.23 1.32l5.85 13.23a13.11 13.11 0 0 1 1.63-.7" fill="#fff" fill-rule="evenodd"/></mask><mask id="d" height="13.69" maskUnits="userSpaceOnUse" width="11.92" x="16.53" y="19.27"><path d="m28.45 30.4-9.29-11.13a27.83 27.83 0 0 0 -2.63 2.46l10.6 10a16 16 0 0 1 1.32-1.28" fill="#fff" fill-rule="evenodd"/></mask><mask id="e" height="8.67" maskUnits="userSpaceOnUse" width="14.31" x="10.81" y="28.14"><path d="m25.12 35.13-12.79-7a30.3 30.3 0 0 0 -1.52 3.3l13.57 5.37a15.83 15.83 0 0 1 .74-1.68" fill="#fff" fill-rule="evenodd"/></mask><mask id="f" height="13.86" maskUnits="userSpaceOnUse" width="8.15" x="42.59" y="14.73"><path d="m44.36 28.59 6.38-12.49a30.39 30.39 0 0 0 -3.39-1.37l-4.76 13.17a15.1 15.1 0 0 1 1.77.69" fill="#fff" fill-rule="evenodd"/></mask><mask id="g" height="11.3" maskUnits="userSpaceOnUse" width="11.88" x="47.76" y="19.87"><path d="m49.09 31.17 10.55-8.93a28.61 28.61 0 0 0 -2.55-2.37l-9.33 10.13a14 14 0 0 1 1.33 1.22" fill="#fff" fill-rule="evenodd"/></mask><mask id="h" height="8.17" maskUnits="userSpaceOnUse" width="13.75" x="51.01" y="28.72"><path d="m51.75 36.89 13-4.85a27.79 27.79 0 0 0 -1.41-3.32l-12.34 6.47a14.31 14.31 0 0 1 .74 1.7" fill="#fff" fill-rule="evenodd"/></mask><mask id="i" height="25.88" maskUnits="userSpaceOnUse" width="45.05" x="15.77" y="15.4"><path d="m34.14 38.58 4.09-2.85 3.57 2.64 2.67.53 2.73 1.89s3-2 5.24-3.5a15 15 0 0 0 -1.49-3l9.87-7.77-10.49 6.91a15 15 0 0 0 -3.33-3.26l6.19-10.79-7.09 10.21a14.86 14.86 0 0 0 -4.31-1.78l1.77-12.41-2.82 12.21a14.21 14.21 0 0 0 -2.37-.19 15 15 0 0 0 -2.52.21l-2.85-12.23 1.78 12.45a15 15 0 0 0 -4.27 1.8l-7.09-10.27 6.23 10.87a15 15 0 0 0 -3.28 3.24l-10.6-6.94 10 7.85a15.5 15.5 0 0 0 -1.44 2.88c1.24 1 5 4 5.12 4s4.72-2.7 4.72-2.7" fill="#fff" fill-rule="evenodd"/></mask><g mask="url(#a)"><path d="m66 34.91a29 29 0 0 0 -56.53.64l6.12-3.46 3.37 2.34s2-.88 2.39-1.14l2.43 2.55s5.27 4.16 5.42 4.16 4.67-2.6 4.67-2.6l4.05-2.76 3.53 2.55 2.64.52 2.7 1.83s6.54-4.33 7.58-4.85a26.05 26.05 0 0 0 3.11 1c.26 0 4.72-3.48 4.72-3.48z" fill="#fcba19" fill-rule="evenodd"/></g><g mask="url(#b)"><path d="m37.94 27.17h.88l1.06-14.39c-.73-.05-1.48-.08-2.23-.08-.48 0-1 0-1.45 0l.71 14.44h1" fill="none"/></g><g mask="url(#c)"><path d="m33.57 29.22-4.25-13.85a26.68 26.68 0 0 0 -3.23 1.32l5.85 13.23a13.11 13.11 0 0 1 1.63-.7" fill="none"/></g><g mask="url(#d)"><path d="m28.45 31.68-9.29-11.14a27.94 27.94 0 0 0 -2.63 2.46l10.6 10a14.48 14.48 0 0 1 1.32-1.28" fill="none"/></g><g mask="url(#e)"><path d="m25.12 35.13-12.79-7a30.3 30.3 0 0 0 -1.52 3.3l13.57 5.37a15.83 15.83 0 0 1 .74-1.68" fill="none"/></g><g mask="url(#f)"><path d="m44.36 28.59 6.38-12.49a30.39 30.39 0 0 0 -3.39-1.37l-4.76 13.17a15.1 15.1 0 0 1 1.77.69" fill="none"/></g><g mask="url(#g)"><path d="m49.09 31.17 10.55-8.93a28.61 28.61 0 0 0 -2.55-2.37l-9.33 10.13a14 14 0 0 1 1.33 1.22" fill="none"/></g><g mask="url(#h)"><path d="m51.75 36.89 13-4.85a27.79 27.79 0 0 0 -1.41-3.32l-12.34 6.47a14.31 14.31 0 0 1 .74 1.7" fill="none"/></g><g mask="url(#i)"><path d="m34.14 38.58 4.09-2.85 3.57 2.64 2.67.53 2.73 1.89s3-2 5.24-3.5a15 15 0 0 0 -1.49-3l9.87-7.77-10.49 6.91a15 15 0 0 0 -3.33-3.26l6.19-10.79-7.09 10.21a14.86 14.86 0 0 0 -4.31-1.78l1.77-12.41-2.82 12.21a14.21 14.21 0 0 0 -2.37-.19 15 15 0 0 0 -2.52.21l-2.85-12.23 1.78 12.45a15 15 0 0 0 -4.27 1.8l-7.09-10.27 6.23 10.87a15 15 0 0 0 -3.28 3.24l-10.6-6.94 10 7.85a15.5 15.5 0 0 0 -1.44 2.88c1.24 1 5 4 5.12 4s4.72-2.7 4.72-2.7" fill="#fff" fill-rule="evenodd"/></g><g fill-rule="evenodd"><path d="m39.38 28.02 1.22-14.67h-.16l-1.45 11.18.39-11.18h-.16l-.84 12.58-.45-12.58h-.16v11.18l-.84-11.18h-.16l.61 14.67z" fill="#fff"/><path d="m33.55 29.26-3.87-14.21-.15.05 2.46 11.01-3.46-10.65-.15.06 3.51 12.11-4.72-11.67-.15.06 3.82 10.5-4.61-10.22-.15.06 5.59 13.58z" fill="#fff"/><path d="m29.05 31.77-9.52-11.25-.11.12 6.88 8.93-7.63-8.18-.12.11 8.31 9.49-9.22-8.58-.11.11 7.91 7.91-8.5-7.31-.12.11 10.82 9.95z" fill="#fff"/><path d="m47.05 31.77 9.51-11.25.11.12-6.88 8.93 7.63-8.18.12.11-8.31 9.49 9.22-8.58.11.11-7.91 7.91 8.5-7.31.12.11-10.81 9.95z" fill="#fff"/><path d="m26.03 34.67-13.37-6.17-.06.15 10.02 5.19-10.38-4.19-.05.15 11.53 5.09-11.97-3.88-.06.15 10.51 3.83-10.8-3.04-.05.15 14 4.44z" fill="#fff"/><path d="m49.72 34.88 12.77-5.95.06.15-9.56 5.02 9.92-4.02.06.15-11.02 4.9 11.46-3.69.05.15-10.05 3.66 10.34-2.87.05.15-13.4 4.22z" fill="#fff"/><path d="m43.18 29.26 3.87-14.21.15.05-2.46 11.01 3.46-10.65.15.06-3.51 12.11 4.72-11.67.15.06-3.82 10.5 4.61-10.22.15.06-5.59 13.58z" fill="#fff"/><path d="m66 34.6-3.78-2.6s-4.48 3.41-4.74 3.46a28.32 28.32 0 0 1 -3.12-1c-1 .51-7.6 4.79-7.6 4.79l-2.7-1.8-2.66-.55-3.53-2.52-4.06 2.73s-4.53 2.58-4.69 2.58-5.46-4.13-5.46-4.13l-2.44-2.56c-.42.25-2.4 1.13-2.4 1.13l-3.38-2.32-6.09 3.4a28.08 28.08 0 0 0 -.15 11.42 40.63 40.63 0 0 1 11.05-.63 146.25 146.25 0 0 1 15.07 2.94c5.93 1.32 10.3 2.55 16.7 1.86 6-.65 10.34-1.85 14.33-4.66a28.54 28.54 0 0 0 .41-4.83 28 28 0 0 0 -.76-6.71" fill="#5475a7"/></g><path d="m78.77 2.88v53.1" fill="none" stroke="#fdb914" stroke-miterlimit="10"/><text fill="#fff" font-family="BCSans-Bold, BC Sans" font-size="16" font-weight="700" letter-spacing="-.11em" transform="translate(89.78 31.6)">T<tspan letter-spacing="-.04em" x="7.5" y="0">empo</tspan><tspan letter-spacing="-.06em" x="50.14" y="0">r</tspan><tspan letter-spacing="-.04em" x="56.45" y="0">ary Fo</tspan><tspan letter-spacing="-.06em" x="101.49" y="0">r</tspan><tspan letter-spacing="-.04em" x="107.79" y="0">eign </tspan><tspan letter-spacing="-.06em"><tspan x="0" y="23.2">W</tspan><tspan letter-spacing="-.04em" x="14.51" y="23.2">orker Authorization Form</tspan></tspan></text><text fill="#fff" font-family="BCSans-Regular, BC Sans" font-size="9" transform="translate(89.78 10.38)"><tspan letter-spacing="-.02em">C</tspan><tspan letter-spacing="-.01em" x="5.51" y="0">O</tspan><tspan x="12.45" y="0">VID-19 RESPONSE</tspan></text></svg>